{"title":"Lightfields S01","uid":10590111,"size":1666864349,"categoryP":"video","categoryS":"tv_shows","magnet":"?xt=urn:btih:4e6abcebf917d3cbee75f3a35cbc3777fa2ac7bc&amp;dn=Lightfields+S01&amp;tr=udp%3A%2F%2Ftracker.openbittorrent.com%3A80&amp;tr=udp%3A%2F%2Fopen.demonii.com%3A1337&amp;tr=udp%3A%2F%2Ftracker.coppersurfer.tk%3A6969&amp;tr=udp%3A%2F%2Fexodus.desync.com%3A6969","seeders":5,"leechers":0,"uploader":"RedBaron58","files":5,"time":1405788248,"description":"Lightfields S01 - paranormal Drama x264 mp4 \n &lt;a href=&quot;\nhttp://www.imdb.com/title/tt2677314/&quot; rel=&quot;nofollow&quot; target=&quot;_NEW&quot;&gt;\nhttp://www.imdb.com/title/tt2677314/&lt;/a&gt;\n\nTrailer:\n\n\nThank you for your kind comments and thumbs ups on my other torrents, your feedback is welcome.\n\n\nAbout the Series:\nLightfields tells the story of three different families living in the same house in Suffolk during three \ndifferent time periods, in 1944, 1975 and 2012. \nThe three families are linked by the spirit of a young girl who died in mysterious circumstances in 1944.\n\n\nI hope you enjoy.\n\n\nTechnical: (All episodes encoded to the same settings)\n\nGeneral\nComplete name                            : H:Lightfields S01Lightfields S01E01 x264 RB58.mp4\nFormat                                   : MPEG-4\nFormat profile                           : Base Media / Version 2\nCodec ID                                 : mp42\nFile size                                : 327 MiB\nDuration                                 : 45mn 40s\nOverall bit rate mode                    : Variable\nOverall bit rate                         : 1 000 Kbps\nEncoded date                             : UTC 2014-07-16 23:37:07\nTagged date                              : UTC 2014-07-16 23:47:12\nWriting application                      : HandBrake 0.9.8 2012071700\n\nVideo\nID                                       : 1\nFormat                                   : AVC\nFormat/Info                              : Advanced Video Codec\nFormat profile                           : &lt;a class=&quot;__cf_email__&quot; href=&quot;/cdn-cgi/l/email-protection&quot; data-cfemail=&quot;014c60686f414d322f31&quot;&gt;[email&amp;#160;protected]&lt;/a&gt;&lt;script cf-hash='f9e31' type=&quot;text/javascript&quot;&gt;\n/* &lt;![CDATA[ */!function(){try{var t=&quot;currentScript&quot;in document?document.currentScript:function(){for(var t=document.getElementsByTagName(&quot;script&quot;),e=t.length;e--;)if(t[e].getAttribute(&quot;cf-hash&quot;))return t[e]}();if(t&amp;&amp;t.previousSibling){var e,r,n,i,c=t.previousSibling,a=c.getAttribute(&quot;data-cfemail&quot;);if(a){for(e=&quot;&quot;,r=parseInt(a.substr(0,2),16),n=2;a.length-n;n+=2)i=parseInt(a.substr(n,2),16)^r,e+=String.fromCharCode(i);e=document.createTextNode(e),c.parentNode.replaceChild(e,c)}}}catch(u){}}();/* ]]&gt; */&lt;/script&gt;\nFormat settings, CABAC                   : Yes\nFormat settings, ReFrames                : 4 frames\nCodec ID                                 : avc1\nCodec ID/Info                            : Advanced Video Coding\nDuration                                 : 45mn 40s\nBit rate mode                            : Variable\nBit rate                                 : 900 Kbps\nWidth                                    : 720 pixels\nHeight                                   : 576 pixels\nDisplay aspect ratio                     : 16:9\nFrame rate mode                          : Constant\nFrame rate                               : 25.000 fps\nStandard                                 : PAL\nColor space                              : YUV\nChroma subsampling                       : 4:2:0\nBit depth                                : 8 bits\nScan type                                : Progressive\nBits/(Pixel*Frame)                       : 0.087\nStream size                              : 294 MiB (90%)\nWriting library                          : x264 core 120\nEncoding settings                        : cabac=1 / ref=1 / deblock=1:0:0\nEncoded date                             : UTC 2014-07-16 23:37:07\nTagged date                              : UTC 2014-07-16 23:47:12\nColor primaries                          : BT.601 NTSC\nTransfer characteristics                 : BT.709\nMatrix coefficients                      : BT.601\n\nAudio\nID                                       : 2\nFormat                                   : AAC\nFormat/Info                              : Advanced Audio Codec\nFormat profile                           : LC\nCodec ID                                 : 40\nDuration                                 : 45mn 39s\nBit rate mode                            : Variable\nBit rate                                 : 96.0 Kbps\nMaximum bit rate                         : 158 Kbps\nChannel(s)                               : 2 channels\nChannel positions                        : Front: L R\nSampling rate                            : 48.0 KHz\nCompression mode                         : Lossy\nDelay relative to video                  : 80ms\nStream size                              : 31.3 MiB (10%)\nLanguage                                 : English\nEncoded date                             : UTC 2014-07-16 23:37:07\nTagged date                              : UTC 2014-07-16 23:47:10","torrent":{"xt":"urn:btih:4e6abcebf917d3cbee75f3a35cbc3777fa2ac7bc","amp;dn":"Lightfields+S01","amp;tr":["udp%3A%2F%2Ftracker.openbittorrent.com%3A80","udp%3A%2F%2Fopen.demonii.com%3A1337","udp%3A%2F%2Ftracker.coppersurfer.tk%3A6969","udp%3A%2F%2Fexodus.desync.com%3A6969"],"infoHash":"4e6abcebf917d3cbee75f3a35cbc3777fa2ac7bc","infoHashBuffer":{"type":"Buffer","data":[78,106,188,235,249,23,211,203,238,117,243,163,92,188,55,119,250,42,199,188]},"announce":[],"urlList":[]}}